<svg width="85" height="85" viewBox="0 0 85 85" fill="none" xmlns="http://www.w3.org/2000/svg">
<circle cx="42.0613" cy="42.0672" r="35.0515" fill="#005E49"/>
<path fillRule="evenodd" clipRule="evenodd" d="M42.5 85C65.9721 85 85 65.9721 85 42.5C85 19.0279 65.9721 0 42.5 0C19.0279 0 0 19.0279 0 42.5C0 65.9721 19.0279 85 42.5 85ZM65.0167 31.3553C66.6863 29.3518 66.4156 26.3741 64.4121 24.7045C62.4085 23.0349 59.4309 23.3056 57.7613 25.3091L40.7709 45.6975C39.1337 47.6622 38.2132 48.75 37.4784 49.4184L37.4503 49.4438L37.42 49.421C36.6277 48.8219 35.6125 47.822 33.8041 46.0135L26.9503 39.1597C25.1062 37.3156 22.1162 37.3156 20.2721 39.1597C18.4279 41.0039 18.4279 43.9938 20.2721 45.838L27.1259 52.6918L27.3187 52.8846L27.3187 52.8847C28.8605 54.427 30.3437 55.9107 31.7237 56.9543C33.2696 58.1232 35.2941 59.2224 37.8885 59.1047C40.483 58.987 42.3996 57.7091 43.8333 56.4049C45.1132 55.2408 46.456 53.6288 47.8518 51.9532L48.0264 51.7437L65.0167 31.3553ZM37.0448 49.766C37.0405 49.7683 37.0383 49.7696 37.0383 49.7697C37.0383 49.7697 37.039 49.7693 37.0406 49.7685C37.0416 49.7679 37.043 49.7671 37.0448 49.766ZM37.8833 49.728C37.8878 49.7298 37.8901 49.7309 37.8901 49.731C37.8901 49.7311 37.8879 49.7302 37.8833 49.728Z" fill="white"/>
</svg>
