<svg width="85" height="85" viewBox="0 0 85 85" fill="none" xmlns="http://www.w3.org/2000/svg">
<circle cx="42.0613" cy="42.0672" r="35.0515" fill="#8C1900"/>
<path fillRule="evenodd" clipRule="evenodd" d="M85 42.5C85 65.9721 65.9721 85 42.5 85C19.0279 85 0 65.9721 0 42.5C0 19.0279 19.0279 0 42.5 0C65.9721 0 85 19.0279 85 42.5ZM21.107 63.895C19.7239 62.5119 19.7239 60.2694 21.107 58.8863L37.4913 42.502L21.1066 26.1172C19.7234 24.7341 19.7234 22.4916 21.1066 21.1085C22.4897 19.7254 24.7321 19.7254 26.1152 21.1085L42.5 37.4933L58.8848 21.1085C60.2679 19.7254 62.5103 19.7254 63.8934 21.1085C65.2766 22.4916 65.2766 24.7341 63.8934 26.1172L47.5087 42.502L63.893 58.8863C65.2761 60.2694 65.2761 62.5119 63.893 63.895C62.5099 65.2781 60.2674 65.2781 58.8843 63.895L42.5 47.5106L26.1157 63.895C24.7326 65.2781 22.4901 65.2781 21.107 63.895Z" fill="white"/>
</svg>
