<svg width="18" height="16" viewBox="0 0 18 16" fill="none" xmlns="http://www.w3.org/2000/svg">
<path d="M1.35503 9.61771C0.757813 8.62235 0.757813 7.37885 1.35503 6.38349V6.38349C1.53728 6.07975 1.8392 5.86698 2.18654 5.79751L3.60463 5.51389C3.68912 5.497 3.76527 5.45168 3.82043 5.38549L5.55351 3.3058C6.54402 2.11718 7.03928 1.52287 7.48126 1.68289C7.92323 1.8429 7.92323 2.61652 7.92323 4.16376L7.92323 11.8374C7.92323 13.3847 7.92323 14.1583 7.48126 14.3183C7.03928 14.4783 6.54403 13.884 5.55351 12.6954L3.82043 10.6157C3.76527 10.5495 3.68912 10.5042 3.60463 10.4873L2.18654 10.2037C1.8392 10.1342 1.53728 9.92145 1.35503 9.61771V9.61771Z" stroke="white" strokeWidth="1.67521"/>
<path d="M11.7217 5.03524C12.5031 5.81661 12.9439 6.87512 12.9483 7.98013C12.9527 9.08514 12.5201 10.1471 11.7449 10.9346" stroke="white" strokeWidth="1.67521" strokeLinecap="round"/>
<path d="M15.1744 3.25951C16.4246 4.5097 17.13 6.20331 17.137 7.97133C17.144 9.73935 16.4519 11.4385 15.2116 12.6985" stroke="white" strokeWidth="1.67521" strokeLinecap="round"/>
</svg>
