<svg width="28" height="28" viewBox="0 0 28 28" fill="none" xmlns="http://www.w3.org/2000/svg">
<path d="M5.01812 4.71358L4.01861 4.68215L4.05003 3.68265L5.04954 3.71407L5.01812 4.71358ZM16.1139 15.0689C16.492 15.4715 16.4721 16.1043 16.0695 16.4824C15.6669 16.8605 15.0341 16.8406 14.656 16.438L16.1139 15.0689ZM3.7127 14.4125L4.01861 4.68215L6.01762 4.745L5.71171 14.4753L3.7127 14.4125ZM5.04954 3.71407L14.7799 4.01998L14.717 6.01899L4.98669 5.71308L5.04954 3.71407ZM5.74709 4.02904L16.1139 15.0689L14.656 16.438L4.28914 5.39811L5.74709 4.02904Z" fill="white"/>
<path d="M21.983 22.7761L21.9515 23.7756L22.951 23.807L22.9825 22.8075L21.983 22.7761ZM16.1149 15.0662C15.7368 14.6636 15.1039 14.6437 14.7013 15.0217C14.2987 15.3998 14.2788 16.0326 14.6569 16.4352L16.1149 15.0662ZM12.2212 23.4697L21.9515 23.7756L22.0144 21.7766L12.2841 21.4707L12.2212 23.4697ZM22.9825 22.8075L23.2884 13.0772L21.2894 13.0143L20.9835 22.7447L22.9825 22.8075ZM22.7119 22.0915L16.1149 15.0662L14.6569 16.4352L21.254 23.4606L22.7119 22.0915Z" fill="white"/>
</svg>
