<svg width="42" height="42" viewBox="0 0 42 42" fill="none" xmlns="http://www.w3.org/2000/svg">
<path d="M2.67383 12.2C2.67383 7.56294 2.67383 5.24439 4.11438 3.80384C5.55494 2.36328 7.87348 2.36328 12.5106 2.36328H29.7248C34.3619 2.36328 36.6805 2.36328 38.121 3.80384C39.5616 5.24439 39.5616 7.56293 39.5616 12.2V29.4143C39.5616 34.0514 39.5616 36.3699 38.121 37.8105C36.6805 39.251 34.3619 39.251 29.7248 39.251H12.5106C7.87348 39.251 5.55494 39.251 4.11438 37.8105C2.67383 36.3699 2.67383 34.0514 2.67383 29.4143V12.2Z" stroke="#262628" strokeWidth="3.68878"/>
<circle cx="30.3396" cy="11.5857" r="3.07398" fill="#262628"/>
<circle cx="21.1182" cy="20.8067" r="6.35289" stroke="#262628" strokeWidth="3.68878"/>
</svg>
