<svg width="48" height="48" viewBox="0 0 48 48" fill="none" xmlns="http://www.w3.org/2000/svg">
<circle cx="24.1178" cy="23.8063" r="21.5179" stroke="#262628" strokeWidth="3.68878" strokeLinecap="round"/>
<path d="M32.8616 15.0586L15.374 21.6164" stroke="#262628" strokeWidth="3.68878" strokeLinecap="round"/>
<path d="M15.3738 15.0586L32.8613 21.6164" stroke="#262628" strokeWidth="3.68878" strokeLinecap="round"/>
<path d="M15.374 29.3902C15.374 28.8253 15.374 28.5429 15.5457 28.3644C15.5513 28.3586 15.5569 28.353 15.5626 28.3475C15.7411 28.1758 16.0236 28.1758 16.5884 28.1758H31.6471C32.212 28.1758 32.4945 28.1758 32.673 28.3475C32.6787 28.353 32.6843 28.3586 32.6898 28.3644C32.8616 28.5429 32.8616 28.8253 32.8616 29.3902V30.3617C32.8616 33.9458 32.8616 35.7379 31.9721 37.0082C31.643 37.4782 31.2342 37.8869 30.7642 38.216C29.4939 39.1055 27.7019 39.1055 24.1178 39.1055C20.5337 39.1055 18.7416 39.1055 17.4713 38.216C17.0014 37.8869 16.5926 37.4782 16.2635 37.0082C15.374 35.7379 15.374 33.9458 15.374 30.3617V29.3902Z" fill="#262628"/>
</svg>
