<svg width="18" height="22" viewBox="0 0 18 22" fill="none" xmlns="http://www.w3.org/2000/svg">
<path d="M1 13.0977C1 11.212 1 10.2692 1.58579 9.68344C2.17157 9.09766 3.11438 9.09766 5 9.09766H13C14.8856 9.09766 15.8284 9.09766 16.4142 9.68344C17 10.2692 17 11.212 17 13.0977V15.0977C17 17.9261 17 19.3403 16.1213 20.219C15.2426 21.0977 13.8284 21.0977 11 21.0977H7C4.17157 21.0977 2.75736 21.0977 1.87868 20.219C1 19.3403 1 17.9261 1 15.0977V13.0977Z" stroke="white" strokeWidth="1.5"/>
<path d="M13.5 9.09845L13.5776 8.47786C13.8365 6.40627 12.9043 4.36589 11.1688 3.20548V3.20548C9.1024 1.82382 6.36732 1.99411 4.48825 3.62144L3.66992 4.33013" stroke="white" strokeWidth="1.5" strokeLinecap="round"/>
</svg>
