<svg width="14" height="22" viewBox="0 0 14 22" fill="none" xmlns="http://www.w3.org/2000/svg">
<path d="M4.23607 13.75H6.25V18.882L6.25 18.9259C6.24995 19.3069 6.24992 19.6562 6.27872 19.9137C6.29336 20.0445 6.32185 20.2236 6.40008 20.3934C6.48749 20.583 6.67491 20.8327 7.02025 20.9142C7.36559 20.9958 7.64487 20.8563 7.80788 20.7257C7.95378 20.6088 8.05934 20.4614 8.13095 20.3509C8.27185 20.1335 8.42802 19.8211 8.59839 19.4803L8.61803 19.441L12.2236 12.2298L12.2491 12.1788C12.5516 11.574 12.8157 11.0459 12.9587 10.609C13.1091 10.1493 13.1912 9.59869 12.8706 9.07997C12.55 8.56125 12.0208 8.38845 11.5424 8.31742C11.0877 8.2499 10.4972 8.24994 9.82098 8.25L9.76393 8.25H7.75V3.11803C7.75 3.10336 7.75 3.08872 7.75 3.07414C7.75005 2.69309 7.75008 2.34379 7.72128 2.08632C7.70664 1.95547 7.67815 1.77641 7.59992 1.60665C7.51251 1.41696 7.32509 1.16729 6.97975 1.08577C6.63441 1.00424 6.35513 1.14374 6.19212 1.27431C6.04622 1.39117 5.94066 1.53858 5.86905 1.64906C5.72814 1.86647 5.57197 2.17891 5.40159 2.51975C5.39507 2.5328 5.38853 2.54589 5.38197 2.55902L1.77639 9.77016L1.75087 9.8212C1.4484 10.426 1.18429 10.9541 1.04133 11.391C0.890933 11.8507 0.808807 12.4013 1.1294 12.92C1.44998 13.4388 1.97921 13.6115 2.45759 13.6826C2.91229 13.7501 3.50277 13.7501 4.17901 13.75L4.23607 13.75Z" stroke="white" strokeWidth="1.5"/>
</svg>
